<?xml version="1.0" encoding="UTF-8" standalone="no"?>
<!-- Created with Inkscape (http://www.inkscape.org/) -->

<svg
   xmlns:dc="http://purl.org/dc/elements/1.1/"
   xmlns:cc="http://creativecommons.org/ns#"
   xmlns:rdf="http://www.w3.org/1999/02/22-rdf-syntax-ns#"
   xmlns:svg="http://www.w3.org/2000/svg"
   xmlns="http://www.w3.org/2000/svg"
   xmlns:sodipodi="http://sodipodi.sourceforge.net/DTD/sodipodi-0.dtd"
   xmlns:inkscape="http://www.inkscape.org/namespaces/inkscape"
   width="1000"
   height="1000"
   id="svg2"
   version="1.1"
   inkscape:version="0.48.5 r10040"
   sodipodi:docname="New document 1">
  <defs
     id="defs4" />
  <sodipodi:namedview
     id="base"
     pagecolor="#ffffff"
     bordercolor="#666666"
     borderopacity="1.0"
     inkscape:pageopacity="0.0"
     inkscape:pageshadow="2"
     inkscape:zoom="0.35"
     inkscape:cx="532.14286"
     inkscape:cy="405.71429"
     inkscape:document-units="px"
     inkscape:current-layer="layer1"
     showgrid="false"
     width="1000px"
     showborder="true"
     borderlayer="true"
     inkscape:showpageshadow="false"
     showguides="true"
     inkscape:guide-bbox="true"
     inkscape:snap-bbox="true"
     inkscape:snap-page="true"
     inkscape:window-width="1365"
     inkscape:window-height="1016"
     inkscape:window-x="443"
     inkscape:window-y="27"
     inkscape:window-maximized="0">
    <sodipodi:guide
       orientation="-0.70710678,0.70710678"
       position="-505.71429,957.14286"
       id="guide2999" />
  </sodipodi:namedview>
  <metadata
     id="metadata7">
    <rdf:RDF>
      <cc:Work
         rdf:about="">
        <dc:format>image/svg+xml</dc:format>
        <dc:type
           rdf:resource="http://purl.org/dc/dcmitype/StillImage" />
        <dc:title></dc:title>
      </cc:Work>
    </rdf:RDF>
  </metadata>
  <g
     inkscape:label="Layer 1"
     inkscape:groupmode="layer"
     id="layer1"
     transform="translate(0,-52.362182)">
    <g
       style="font-size:147.57183838px;font-style:normal;font-variant:normal;font-weight:normal;font-stretch:normal;line-height:125%;letter-spacing:0px;word-spacing:0px;fill:#000000;fill-opacity:1;stroke:none;font-family:Lato;-inkscape-font-specification:Lato"
       id="text2985">
      <path
         d="M 52.738095,335.86697 52.738095,220.57648 129.59843,220.57648 129.59843,233.38653 78.358206,233.38653 78.358206,271.8167 116.78837,271.8167 116.78837,284.62675 78.358206,284.62675 78.358206,323.05692 129.59843,323.05692 129.59843,335.86697 52.738095,335.86697"
         style="font-weight:bold;font-family:'8-bit Operator+';-inkscape-font-specification:'8-bit Operator+ Bold'"
         id="path3772" />
      <path
         d="M 155.34664,335.86697 155.34664,220.57648 168.15669,220.57648 168.15669,233.38653 180.96675,233.38653 180.96675,246.19659 193.7768,246.19659 193.7768,259.00664 206.58686,259.00664 206.58686,246.19659 219.39692,246.19659 219.39692,233.38653 232.20697,233.38653 232.20697,220.57648 245.01703,220.57648 245.01703,335.86697 219.39692,335.86697 219.39692,271.8167 206.58686,271.8167 206.58686,284.62675 193.7768,284.62675 193.7768,271.8167 180.96675,271.8167 180.96675,335.86697 155.34664,335.86697"
         style="font-weight:bold;font-family:'8-bit Operator+';-inkscape-font-specification:'8-bit Operator+ Bold'"
         id="path3774" />
      <path
         d="M 270.63714,335.86697 270.63714,220.57648 347.49748,220.57648 347.49748,233.38653 296.25725,233.38653 296.25725,271.8167 334.68742,271.8167 334.68742,284.62675 296.25725,284.62675 296.25725,323.05692 347.49748,323.05692 347.49748,335.86697 270.63714,335.86697"
         style="font-weight:bold;font-family:'8-bit Operator+';-inkscape-font-specification:'8-bit Operator+ Bold'"
         id="path3776" />
      <path
         d="M 373.24566,335.86697 373.24566,220.57648 437.29594,220.57648 437.29594,233.38653 450.106,233.38653 450.106,271.8167 437.29594,271.8167 437.29594,284.62675 450.106,284.62675 450.106,335.86697 424.48588,335.86697 424.48588,284.62675 398.86577,284.62675 398.86577,335.86697 373.24566,335.86697 M 398.86577,271.8167 424.48588,271.8167 424.48588,233.38653 398.86577,233.38653 398.86577,271.8167"
         style="font-weight:bold;font-family:'8-bit Operator+';-inkscape-font-specification:'8-bit Operator+ Bold'"
         id="path3778" />
      <path
         d="M 527.09444,284.62675 514.28438,284.62675 514.28438,271.8167 552.71455,271.8167 552.71455,323.05692 539.90449,323.05692 539.90449,335.86697 488.66427,335.86697 488.66427,323.05692 475.85421,323.05692 475.85421,233.38653 488.66427,233.38653 488.66427,220.57648 539.90449,220.57648 539.90449,233.38653 552.71455,233.38653 552.71455,259.00664 527.09444,259.00664 527.09444,233.38653 501.47433,233.38653 501.47433,323.05692 527.09444,323.05692 527.09444,284.62675"
         style="font-weight:bold;font-family:'8-bit Operator+';-inkscape-font-specification:'8-bit Operator+ Bold'"
         id="path3780" />
      <path
         d="M 578.46277,335.86697 578.46277,220.57648 655.3231,220.57648 655.3231,233.38653 604.08288,233.38653 604.08288,271.8167 642.51304,271.8167 642.51304,284.62675 604.08288,284.62675 604.08288,323.05692 655.3231,323.05692 655.3231,335.86697 578.46277,335.86697"
         style="font-weight:bold;font-family:'8-bit Operator+';-inkscape-font-specification:'8-bit Operator+ Bold'"
         id="path3782" />
      <path
         d="M 681.07129,335.86697 681.07129,220.57648 706.6914,220.57648 706.6914,246.19659 719.50145,246.19659 719.50145,259.00664 732.31151,259.00664 732.31151,220.57648 757.93162,220.57648 757.93162,335.86697 732.31151,335.86697 732.31151,284.62675 719.50145,284.62675 719.50145,271.8167 706.6914,271.8167 706.6914,335.86697 681.07129,335.86697"
         style="font-weight:bold;font-family:'8-bit Operator+';-inkscape-font-specification:'8-bit Operator+ Bold'"
         id="path3784" />
      <path
         d="M 834.92009,297.43681 860.5402,297.43681 860.5402,323.05692 847.73014,323.05692 847.73014,335.86697 796.48992,335.86697 796.48992,323.05692 783.67987,323.05692 783.67987,233.38653 796.48992,233.38653 796.48992,220.57648 847.73014,220.57648 847.73014,233.38653 860.5402,233.38653 860.5402,259.00664 834.92009,259.00664 834.92009,233.38653 809.29998,233.38653 809.29998,323.05692 834.92009,323.05692 834.92009,297.43681"
         style="font-weight:bold;font-family:'8-bit Operator+';-inkscape-font-specification:'8-bit Operator+ Bold'"
         id="path3786" />
      <path
         d="M 911.9085,335.86697 911.9085,284.62675 899.09844,284.62675 899.09844,271.8167 886.28839,271.8167 886.28839,220.57648 911.9085,220.57648 911.9085,271.8167 937.52861,271.8167 937.52861,220.57648 963.14872,220.57648 963.14872,271.8167 950.33867,271.8167 950.33867,284.62675 937.52861,284.62675 937.52861,335.86697 911.9085,335.86697"
         style="font-weight:bold;font-family:'8-bit Operator+';-inkscape-font-specification:'8-bit Operator+ Bold'"
         id="path3788" />
      <path
         d="M 52.738095,520.33177 52.738095,405.04127 116.78837,405.04127 116.78837,417.85133 129.59843,417.85133 129.59843,507.52172 116.78837,507.52172 116.78837,520.33177 52.738095,520.33177 M 78.358206,507.52172 103.97832,507.52172 103.97832,417.85133 78.358206,417.85133 78.358206,507.52172"
         style="font-weight:bold;font-family:'8-bit Operator+';-inkscape-font-specification:'8-bit Operator+ Bold'"
         id="path3790" />
      <path
         d="M 168.15669,520.33177 168.15669,507.52172 155.34664,507.52172 155.34664,417.85133 168.15669,417.85133 168.15669,405.04127 219.39692,405.04127 219.39692,417.85133 232.20697,417.85133 232.20697,507.52172 219.39692,507.52172 219.39692,520.33177 168.15669,520.33177 M 180.96675,507.52172 206.58686,507.52172 206.58686,417.85133 180.96675,417.85133 180.96675,507.52172"
         style="font-weight:bold;font-family:'8-bit Operator+';-inkscape-font-specification:'8-bit Operator+ Bold'"
         id="path3792" />
      <path
         d="M 309.1954,494.71166 322.00546,494.71166 322.00546,405.04127 347.62557,405.04127 347.62557,494.71166 334.81551,494.71166 334.81551,520.33177 309.1954,520.33177 309.1954,494.71166 M 309.1954,494.71166 296.38535,494.71166 296.38535,430.66138 309.1954,430.66138 309.1954,494.71166 M 270.76524,520.33177 270.76524,494.71166 257.95518,494.71166 257.95518,405.04127 283.57529,405.04127 283.57529,494.71166 296.38535,494.71166 296.38535,520.33177 270.76524,520.33177"
         style="font-weight:bold;font-family:'8-bit Operator+';-inkscape-font-specification:'8-bit Operator+ Bold'"
         id="path3794" />
      <path
         d="M 373.24566,520.33177 373.24566,405.04127 398.86577,405.04127 398.86577,430.66138 411.67583,430.66138 411.67583,443.47144 424.48588,443.47144 424.48588,405.04127 450.106,405.04127 450.106,520.33177 424.48588,520.33177 424.48588,469.09155 411.67583,469.09155 411.67583,456.28149 398.86577,456.28149 398.86577,520.33177 373.24566,520.33177"
         style="font-weight:bold;font-family:'8-bit Operator+';-inkscape-font-specification:'8-bit Operator+ Bold'"
         id="path3796" />
      <path
         d="M 501.47433,520.33177 501.47433,417.85133 475.85421,417.85133 475.85421,405.04127 552.71455,405.04127 552.71455,417.85133 527.09444,417.85133 527.09444,520.33177 501.47433,520.33177"
         style="font-weight:bold;font-family:'8-bit Operator+';-inkscape-font-specification:'8-bit Operator+ Bold'"
         id="path3798" />
      <path
         d="M 578.46277,520.33177 578.46277,507.52172 591.27282,507.52172 591.27282,417.85133 578.46277,417.85133 578.46277,405.04127 629.70299,405.04127 629.70299,417.85133 616.89293,417.85133 616.89293,507.52172 629.70299,507.52172 629.70299,520.33177 578.46277,520.33177"
         style="font-weight:bold;font-family:'8-bit Operator+';-inkscape-font-specification:'8-bit Operator+ Bold'"
         id="path3800" />
      <path
         d="M 655.41919,520.33177 655.41919,405.04127 668.22924,405.04127 668.22924,417.85133 681.0393,417.85133 681.0393,430.66138 693.84935,430.66138 693.84935,443.47144 706.65941,443.47144 706.65941,430.66138 719.46946,430.66138 719.46946,417.85133 732.27952,417.85133 732.27952,405.04127 745.08957,405.04127 745.08957,520.33177 719.46946,520.33177 719.46946,456.28149 706.65941,456.28149 706.65941,469.09155 693.84935,469.09155 693.84935,456.28149 681.0393,456.28149 681.0393,520.33177 655.41919,520.33177"
         style="font-weight:bold;font-family:'8-bit Operator+';-inkscape-font-specification:'8-bit Operator+ Bold'"
         id="path3802" />
      <path
         d="M 770.70965,520.33177 770.70965,405.04127 847.56999,405.04127 847.56999,417.85133 796.32976,417.85133 796.32976,456.28149 834.75993,456.28149 834.75993,469.09155 796.32976,469.09155 796.32976,507.52172 847.56999,507.52172 847.56999,520.33177 770.70965,520.33177"
         style="font-weight:bold;font-family:'8-bit Operator+';-inkscape-font-specification:'8-bit Operator+ Bold'"
         id="path3804" />
      <path
         d="M 52.738095,704.79657 52.738095,589.50607 129.59843,589.50607 129.59843,602.31613 78.358206,602.31613 78.358206,640.74629 116.78837,640.74629 116.78837,653.55635 78.358206,653.55635 78.358206,704.79657 52.738095,704.79657"
         style="font-weight:bold;font-family:'8-bit Operator+';-inkscape-font-specification:'8-bit Operator+ Bold'"
         id="path3806" />
      <path
         d="M 168.15669,704.79657 168.15669,691.98651 155.34664,691.98651 155.34664,602.31613 168.15669,602.31613 168.15669,589.50607 219.39692,589.50607 219.39692,602.31613 232.20697,602.31613 232.20697,691.98651 219.39692,691.98651 219.39692,704.79657 168.15669,704.79657 M 180.96675,691.98651 206.58686,691.98651 206.58686,602.31613 180.96675,602.31613 180.96675,691.98651"
         style="font-weight:bold;font-family:'8-bit Operator+';-inkscape-font-specification:'8-bit Operator+ Bold'"
         id="path3808" />
      <path
         d="M 257.95518,704.79657 257.95518,589.50607 322.00546,589.50607 322.00546,602.31613 334.81551,602.31613 334.81551,640.74629 322.00546,640.74629 322.00546,653.55635 334.81551,653.55635 334.81551,704.79657 309.1954,704.79657 309.1954,653.55635 283.57529,653.55635 283.57529,704.79657 257.95518,704.79657 M 283.57529,640.74629 309.1954,640.74629 309.1954,602.31613 283.57529,602.31613 283.57529,640.74629"
         style="font-weight:bold;font-family:'8-bit Operator+';-inkscape-font-specification:'8-bit Operator+ Bold'"
         id="path3810" />
      <path
         d="M 424.67806,691.98651 411.86801,691.98651 411.86801,666.3664 437.48812,666.3664 437.48812,691.98651 463.10823,691.98651 463.10823,653.55635 437.48812,653.55635 437.48812,640.74629 463.10823,640.74629 463.10823,602.31613 437.48812,602.31613 437.48812,627.93624 411.86801,627.93624 411.86801,602.31613 424.67806,602.31613 424.67806,589.50607 475.91829,589.50607 475.91829,602.31613 488.72834,602.31613 488.72834,640.74629 475.91829,640.74629 475.91829,653.55635 488.72834,653.55635 488.72834,691.98651 475.91829,691.98651 475.91829,704.79657 424.67806,704.79657 424.67806,691.98651"
         style="font-weight:bold;font-family:'8-bit Operator+';-inkscape-font-specification:'8-bit Operator+ Bold'"
         id="path3812" />
      <path
         d="M 527.28658,704.79657 527.28658,691.98651 514.47653,691.98651 514.47653,602.31613 527.28658,602.31613 527.28658,589.50607 578.52681,589.50607 578.52681,602.31613 591.33686,602.31613 591.33686,691.98651 578.52681,691.98651 578.52681,704.79657 527.28658,704.79657 M 540.09664,640.74629 552.9067,640.74629 552.9067,627.93624 565.71675,627.93624 565.71675,602.31613 540.09664,602.31613 540.09664,640.74629 M 540.09664,691.98651 565.71675,691.98651 565.71675,653.55635 552.9067,653.55635 552.9067,666.3664 540.09664,666.3664 540.09664,691.98651"
         style="font-weight:bold;font-family:'8-bit Operator+';-inkscape-font-specification:'8-bit Operator+ Bold'"
         id="path3814" />
      <path
         d="M 617.08508,640.74629 668.3253,640.74629 668.3253,653.55635 617.08508,653.55635 617.08508,640.74629"
         style="font-weight:bold;font-family:'8-bit Operator+';-inkscape-font-specification:'8-bit Operator+ Bold'"
         id="path3816" />
      <path
         d="M 719.66161,653.55635 719.66161,691.98651 745.28172,691.98651 745.28172,653.55635 719.66161,653.55635 M 758.09178,640.74629 758.09178,653.55635 770.90183,653.55635 770.90183,691.98651 758.09178,691.98651 758.09178,704.79657 706.85156,704.79657 706.85156,691.98651 694.0415,691.98651 694.0415,602.31613 706.85156,602.31613 706.85156,589.50607 758.09178,589.50607 758.09178,602.31613 770.90183,602.31613 770.90183,627.93624 745.28172,627.93624 745.28172,602.31613 719.66161,602.31613 719.66161,640.74629 758.09178,640.74629"
         style="font-weight:bold;font-family:'8-bit Operator+';-inkscape-font-specification:'8-bit Operator+ Bold'"
         id="path3818" />
      <path
         d="M 809.46008,704.79657 809.46008,691.98651 796.65002,691.98651 796.65002,602.31613 809.46008,602.31613 809.46008,589.50607 860.7003,589.50607 860.7003,602.31613 873.51035,602.31613 873.51035,691.98651 860.7003,691.98651 860.7003,704.79657 809.46008,704.79657 M 822.27013,640.74629 835.08019,640.74629 835.08019,627.93624 847.89024,627.93624 847.89024,602.31613 822.27013,602.31613 822.27013,640.74629 M 822.27013,691.98651 847.89024,691.98651 847.89024,653.55635 835.08019,653.55635 835.08019,666.3664 822.27013,666.3664 822.27013,691.98651"
         style="font-weight:bold;font-family:'8-bit Operator+';-inkscape-font-specification:'8-bit Operator+ Bold'"
         id="path3820" />
      <path
         d="M 52.738095,889.26137 52.738095,773.97087 65.54815,773.97087 65.54815,786.78092 78.358206,786.78092 78.358206,799.59098 91.168261,799.59098 91.168261,812.40104 103.97832,812.40104 103.97832,799.59098 116.78837,799.59098 116.78837,786.78092 129.59843,786.78092 129.59843,773.97087 142.40848,773.97087 142.40848,889.26137 116.78837,889.26137 116.78837,825.21109 103.97832,825.21109 103.97832,838.02115 91.168261,838.02115 91.168261,825.21109 78.358206,825.21109 78.358206,889.26137 52.738095,889.26137"
         style="font-weight:bold;font-family:'8-bit Operator+';-inkscape-font-specification:'8-bit Operator+ Bold'"
         id="path3822" />
      <path
         d="M 168.02859,889.26137 168.02859,876.45131 180.83865,876.45131 180.83865,786.78092 168.02859,786.78092 168.02859,773.97087 219.26881,773.97087 219.26881,786.78092 206.45876,786.78092 206.45876,876.45131 219.26881,876.45131 219.26881,889.26137 168.02859,889.26137"
         style="font-weight:bold;font-family:'8-bit Operator+';-inkscape-font-specification:'8-bit Operator+ Bold'"
         id="path3824" />
      <path
         d="M 244.985,889.26137 244.985,773.97087 270.60511,773.97087 270.60511,799.59098 283.41516,799.59098 283.41516,812.40104 296.22522,812.40104 296.22522,773.97087 321.84533,773.97087 321.84533,889.26137 296.22522,889.26137 296.22522,838.02115 283.41516,838.02115 283.41516,825.21109 270.60511,825.21109 270.60511,889.26137 244.985,889.26137"
         style="font-weight:bold;font-family:'8-bit Operator+';-inkscape-font-specification:'8-bit Operator+ Bold'"
         id="path3826" />
      <path
         d="M 398.83375,773.97087 424.45387,773.97087 424.45387,876.45131 411.64381,876.45131 411.64381,889.26137 360.40359,889.26137 360.40359,876.45131 347.59353,876.45131 347.59353,773.97087 373.21364,773.97087 373.21364,876.45131 398.83375,876.45131 398.83375,773.97087"
         style="font-weight:bold;font-family:'8-bit Operator+';-inkscape-font-specification:'8-bit Operator+ Bold'"
         id="path3828" />
      <path
         d="M 475.8222,889.26137 475.8222,786.78092 450.20208,786.78092 450.20208,773.97087 527.06242,773.97087 527.06242,786.78092 501.44231,786.78092 501.44231,889.26137 475.8222,889.26137"
         style="font-weight:bold;font-family:'8-bit Operator+';-inkscape-font-specification:'8-bit Operator+ Bold'"
         id="path3830" />
      <path
         d="M 552.81064,889.26137 552.81064,773.97087 629.67097,773.97087 629.67097,786.78092 578.43075,786.78092 578.43075,825.21109 616.86091,825.21109 616.86091,838.02115 578.43075,838.02115 578.43075,876.45131 629.67097,876.45131 629.67097,889.26137 552.81064,889.26137"
         style="font-weight:bold;font-family:'8-bit Operator+';-inkscape-font-specification:'8-bit Operator+ Bold'"
         id="path3832" />
      <path
         d="M 668.22924,876.45131 655.41919,876.45131 655.41919,850.8312 681.0393,850.8312 681.0393,876.45131 706.65941,876.45131 706.65941,838.02115 668.22924,838.02115 668.22924,825.21109 655.41919,825.21109 655.41919,786.78092 668.22924,786.78092 668.22924,773.97087 719.46946,773.97087 719.46946,786.78092 732.27952,786.78092 732.27952,812.40104 706.65941,812.40104 706.65941,786.78092 681.0393,786.78092 681.0393,825.21109 719.46946,825.21109 719.46946,838.02115 732.27952,838.02115 732.27952,876.45131 719.46946,876.45131 719.46946,889.26137 668.22924,889.26137 668.22924,876.45131"
         style="font-weight:bold;font-family:'8-bit Operator+';-inkscape-font-specification:'8-bit Operator+ Bold'"
         id="path3834" />
    </g>
    <rect
       style="color:#000000;fill:none;fill-opacity:1;fill-rule:nonzero;stroke:#000000;stroke-width:40;marker:none;visibility:visible;display:inline;overflow:visible;enable-background:accumulate;stroke-opacity:1;stroke-miterlimit:4;stroke-dasharray:none"
       id="rect3001"
       width="1000"
       height="1000"
       x="0"
       y="0"
       transform="translate(0,52.362182)" />
  </g>
</svg>
